<svg width="20" height="20" viewBox="0 0 20 20" fill="none" xmlns="http://www.w3.org/2000/svg">
<path d="M18.6813 7.79535C18.6095 7.57467 18.4782 7.37812 18.3017 7.22744C18.1252 7.07677 17.9105 6.97784 17.6813 6.9416L13.1894 6.25223L11.1763 1.98098C11.0782 1.76357 10.9195 1.57906 10.7191 1.44958C10.5188 1.32011 10.2854 1.25115 10.0469 1.25098C9.56065 1.25098 9.12753 1.53098 8.91753 1.97973L6.90378 6.25285L2.4119 6.94223C2.18277 6.97867 1.96816 7.07767 1.79171 7.22832C1.61526 7.37896 1.48383 7.5754 1.4119 7.79598C1.33409 8.0238 1.32076 8.26869 1.37337 8.50361C1.42598 8.73854 1.54249 8.95435 1.71003 9.12723L4.97878 12.491L4.20628 17.2485C4.12503 17.7497 4.32753 18.2385 4.73565 18.5254C4.92428 18.6585 5.14667 18.7356 5.37721 18.7479C5.60776 18.7602 5.83708 18.7071 6.03878 18.5947L10.0363 16.3647L14.0557 18.5947C14.257 18.7077 14.4864 18.7612 14.717 18.7489C14.9476 18.7367 15.1699 18.6591 15.3582 18.5254C15.5582 18.3846 15.7142 18.1899 15.8079 17.964C15.9016 17.738 15.9292 17.4901 15.8875 17.2491L15.115 12.4916L18.3838 9.12785C18.5513 8.95498 18.6678 8.73916 18.7204 8.50424C18.773 8.26931 18.7597 8.02442 18.6819 7.7966L18.6813 7.79535Z" fill="#FF9529"/>
</svg>